<svg width="150" height="24" viewBox="0 0 150 24" fill="none" xmlns="http://www.w3.org/2000/svg">
<path fill-rule="evenodd" clip-rule="evenodd" d="M8.08141 16.8589L13.0422 20L11.7258 14.08L16.1086 10.0968L10.3371 9.58316L8.08141 4L5.82576 9.58316L0.0541992 10.0968L4.43706 14.08L3.12059 20L8.08141 16.8589Z" fill="#FAA307"/>
<path fill-rule="evenodd" clip-rule="evenodd" d="M28.1498 16.8589L33.1106 20L31.7941 14.08L36.177 10.0968L30.4054 9.58316L28.1498 4L25.8941 9.58316L20.1226 10.0968L24.5054 14.08L23.189 20L28.1498 16.8589Z" fill="#FAA307"/>
<path fill-rule="evenodd" clip-rule="evenodd" d="M48.2176 16.8589L53.1785 20L51.862 14.08L56.2449 10.0968L50.4733 9.58316L48.2176 4L45.962 9.58316L40.1904 10.0968L44.5733 14.08L43.2568 20L48.2176 16.8589Z" fill="#FAA307"/>
<path fill-rule="evenodd" clip-rule="evenodd" d="M68.2858 16.8589L73.2466 20L71.9301 14.08L76.313 10.0968L70.5414 9.58316L68.2858 4L66.0301 9.58316L60.2585 10.0968L64.6414 14.08L63.3249 20L68.2858 16.8589Z" fill="#FAA307"/>
<path fill-rule="evenodd" clip-rule="evenodd" d="M88.3536 16.8589L93.3144 20L91.998 14.08L96.3808 10.0968L90.6093 9.58316L88.3536 4L86.098 9.58316L80.3264 10.0968L84.7093 14.08L83.3928 20L88.3536 16.8589Z" fill="#FAA307"/>
<path d="M107.292 19.716H108.958C107.796 17.672 107.306 15.558 107.306 13.164C107.306 10.77 107.796 8.656 108.958 6.612H107.292C106.2 8.278 105.584 10.588 105.584 13.164C105.584 15.74 106.2 18.022 107.292 19.716ZM112.356 15.46L114.974 12.968C116.332 11.694 116.598 10.826 116.598 9.874C116.598 8.138 115.226 7.06 113.098 7.06C111.488 7.06 110.13 7.662 109.374 8.684L110.648 9.664C111.194 8.964 111.992 8.642 112.944 8.642C114.148 8.642 114.764 9.16 114.764 10.056C114.764 10.602 114.596 11.176 113.644 12.086L109.752 15.782V17H116.976V15.46H112.356ZM122.073 17.14C124.411 17.14 126.175 15.32 126.175 12.1C126.175 8.88 124.411 7.06 122.073 7.06C119.749 7.06 117.985 8.88 117.985 12.1C117.985 15.32 119.749 17.14 122.073 17.14ZM122.073 15.558C120.743 15.558 119.819 14.466 119.819 12.1C119.819 9.734 120.743 8.642 122.073 8.642C123.417 8.642 124.341 9.734 124.341 12.1C124.341 14.466 123.417 15.558 122.073 15.558ZM127.113 7.2V10.406H128.807V8.74H132.657L128.975 17H130.921L134.729 8.418V7.2H127.113ZM141.964 11.848C142.762 11.414 143.21 10.714 143.21 9.79C143.21 8.11 141.726 7.06 139.542 7.06C137.372 7.06 135.902 8.11 135.902 9.79C135.902 10.714 136.336 11.414 137.12 11.848C136.112 12.31 135.552 13.108 135.552 14.186C135.552 16.006 137.106 17.14 139.542 17.14C141.978 17.14 143.56 16.006 143.56 14.186C143.56 13.108 142.986 12.31 141.964 11.848ZM139.542 8.488C140.662 8.488 141.418 8.992 141.418 9.874C141.418 10.714 140.704 11.246 139.542 11.246C138.394 11.246 137.694 10.714 137.694 9.874C137.694 8.992 138.422 8.488 139.542 8.488ZM139.542 15.712C138.198 15.712 137.386 15.124 137.386 14.13C137.386 13.164 138.198 12.562 139.542 12.562C140.886 12.562 141.726 13.164 141.726 14.13C141.726 15.124 140.886 15.712 139.542 15.712ZM146.099 19.716C147.205 18.022 147.807 15.74 147.807 13.164C147.807 10.588 147.205 8.278 146.099 6.612H144.433C145.595 8.656 146.099 10.77 146.099 13.164C146.099 15.558 145.595 17.672 144.433 19.716H146.099Z" fill="#808080"/>
</svg>
